PathFileType	4	(X/Y/Z)	tour_average_tracked.trc
DataRate	CameraRate	NumFrames	NumMarkers	Units	OrigDataRate	OrigDataStartFrame	OrigNumFrames
360.00	360.00	8	34	m	360.00	491	654
Frame#	Time	WaistLeft			WaistRight			WaistLBack			WaistRBack			BackTop			BackLeft			BackRight			HeadTop			HeadFront			HeadSide			LShoulderTop			LShoulderBack			LElbowOut			LUArmHigh			LWristTop			RShoulderTop			RShoulderBack			RElbowOut			RUArmHigh			RWristTop			LKneeOut			LToeIn			LToeOut			LAnkleOut			RKneeOut			RToeIn			RToeOut			RAnkleOut			Marker_2:2:1			Marker_2:2:2			Marker_2:2:3			Marker_3:3:1			Marker_3:3:2			Marker_3:3:3		
		X1	Y1	Z1	X2	Y2	Z2	X3	Y3	Z3	X4	Y4	Z4	X5	Y5	Z5	X6	Y6	Z6	X7	Y7	Z7	X8	Y8	Z8	X9	Y9	Z9	X10	Y10	Z10	X11	Y11	Z11	X12	Y12	Z12	X13	Y13	Z13	X14	Y14	Z14	X15	Y15	Z15	X16	Y16	Z16	X17	Y17	Z17	X18	Y18	Z18	X19	Y19	Z19	X20	Y20	Z20	X21	Y21	Z21	X22	Y22	Z22	X23	Y23	Z23	X24	Y24	Z24	X25	Y25	Z25	X26	Y26	Z26	X27	Y27	Z27	X28	Y28	Z28	X29	Y29	Z29	X30	Y30	Z30	X31	Y31	Z31	X32	Y32	Z32	X33	Y33	Z33	X34	Y34	Z34

491	1.361111111	1.255930	1.066012	0.125911	0.949898	1.018199	-0.029640	1.242455	1.032951	-0.040281	1.095850	1.014434	-0.122096	0.955723	1.473210	-0.211184	1.141679	1.411292	-0.135001	1.034958	1.287331	-0.223399	0.659353	1.574729	-0.223264	0.624338	1.439389	-0.153279	0.718872	1.581841	-0.104019	0.953996	1.540770	0.023773	1.065166	1.543970	-0.106516	1.049828	1.246478	0.166660	1.095784	1.390987	0.092681	0.924152	1.060521	0.328663	NaN	NaN	NaN	0.902398	1.339491	-0.265008	0.777656	1.039213	0.040965	0.808726	1.117951	-0.121479	0.773078	1.002787	0.324232	1.202511	0.508083	0.233412	0.988665	0.062223	0.239712	1.022671	0.038876	0.337014	1.175422	0.086377	0.272093	0.965506	0.526124	-0.157743	0.969107	0.030363	-0.282738	0.966015	0.055816	-0.397162	1.078232	0.157785	-0.341079	0.464420	0.588481	1.199907	0.447982	0.640410	1.274522	0.400036	0.624304	1.261504	0.750445	0.828711	0.624616	0.748953	0.863505	0.551821	0.799123	0.873733	0.523392
492	1.363888889	1.256993	1.066224	0.125447	0.948866	1.017931	-0.026770	1.241128	1.032763	-0.040484	1.093773	1.014020	-0.120925	0.953794	1.470183	-0.214876	1.140579	1.408640	-0.140375	1.031550	1.283239	-0.224477	0.657943	1.573962	-0.222978	0.623391	1.438830	-0.152022	0.718805	1.581304	-0.104577	0.957295	1.543986	0.018727	1.065737	1.542454	-0.113920	1.054139	1.251694	0.167136	1.099952	1.394340	0.087753	0.929716	1.072920	0.335319	NaN	NaN	NaN	0.897746	1.335505	-0.264132	0.774573	1.051513	0.055101	0.801210	1.122645	-0.110123	0.779010	1.021600	0.339673	1.204661	0.507921	0.232323	0.989000	0.062813	0.240467	1.023345	0.039057	0.337621	1.175960	0.086185	0.271886	0.965653	0.526564	-0.156611	0.969277	0.030453	-0.282904	0.965267	0.056150	-0.397213	1.077474	0.158560	-0.341745	0.513896	0.652634	1.251742	0.504371	0.708792	1.324323	0.455210	0.693524	1.315884	0.765523	0.856361	0.647112	0.760786	0.888555	0.573332	0.809541	0.896130	0.541719
493	1.366666667	1.257826	1.066373	0.125132	0.948056	1.017128	-0.024197	1.240041	1.032543	-0.040978	1.092089	1.013737	-0.120369	0.951581	1.467018	-0.218112	1.139022	1.405813	-0.145522	1.027990	1.278939	-0.225283	0.656419	1.573133	-0.222745	0.622377	1.438513	-0.150650	0.718785	1.580923	-0.105270	0.960504	1.547142	0.013537	1.066055	1.540727	-0.121423	1.058800	1.256713	0.167249	1.104014	1.397640	0.082650	0.934492	1.085082	0.342762	NaN	NaN	NaN	0.892831	1.331752	-0.262889	0.773370	1.063853	0.069172	0.794992	1.128083	-0.098827	0.785457	1.040562	0.354472	1.206826	0.507868	0.231423	0.989513	0.063499	0.241339	1.024030	0.039295	0.338223	1.176550	0.086067	0.271730	0.965926	0.526967	-0.155569	0.969425	0.030557	-0.283141	0.964400	0.056461	-0.397318	1.076682	0.159414	-0.342410	0.565297	0.718661	1.297587	0.561944	0.778619	1.367575	0.512101	0.764548	1.362979	0.782866	0.886764	0.669512	0.774376	0.915706	0.594718	0.821493	0.920739	0.560067
494	1.369444444	1.258471	1.066532	0.124941	0.947569	1.016889	-0.021328	1.239028	1.032542	-0.040945	1.090324	1.013255	-0.118557	0.949306	1.464014	-0.221225	1.137253	1.402729	-0.150538	1.024807	1.274857	-0.226061	0.654958	1.572446	-0.222643	0.621143	1.438398	-0.149104	0.718684	1.580709	-0.106112	0.963523	1.549894	0.008150	1.066005	1.539023	-0.128695	1.063034	1.261218	0.167052	1.107660	1.400796	0.077195	0.938590	1.097132	0.350209	NaN	NaN	NaN	0.887731	1.328393	-0.261366	0.773610	1.076042	0.083169	0.789917	1.133895	-0.087747	0.791941	1.059744	0.368477	1.208776	0.507684	0.230619	0.989958	0.064102	0.242171	1.024796	0.039474	0.338881	1.177166	0.085908	0.271590	0.966086	0.527312	-0.154606	0.969508	0.030699	-0.283421	0.963623	0.056722	-0.397509	1.075778	0.160214	-0.343291	0.617898	0.785932	1.337918	0.619901	0.849487	1.404762	0.569494	0.836682	1.403488	0.802652	0.919017	0.691258	0.790108	0.944720	0.615880	0.835307	0.947055	0.578181
495	1.372222222	1.259062	1.066751	0.124804	0.946554	1.016443	-0.018972	1.237948	1.032495	-0.040820	1.088636	1.012750	-0.117771	0.946635	1.460939	-0.224075	1.135260	1.399547	-0.155474	1.020019	1.270069	-0.225745	0.653312	1.571655	-0.222645	0.619790	1.438550	-0.147530	0.718526	1.580695	-0.107043	0.966374	1.552289	0.002597	1.065853	1.537175	-0.135881	1.067165	1.265501	0.166273	1.110787	1.403773	0.071738	0.942538	1.109755	0.357215	NaN	NaN	NaN	0.882330	1.325243	-0.259453	0.775168	1.088220	0.097322	0.785999	1.139895	-0.076794	0.798742	1.079493	0.381763	1.210668	0.507516	0.229848	0.990458	0.064751	0.243066	1.025562	0.039503	0.339513	1.177843	0.085759	0.271475	0.966118	0.527649	-0.153761	0.969617	0.030868	-0.283791	0.962817	0.056973	-0.397772	1.074765	0.161104	-0.344240	0.671337	0.854390	1.372732	0.678301	0.920882	1.436467	0.627531	0.909372	1.438314	0.822716	0.951956	0.711408	0.806962	0.974990	0.635787	0.849112	0.973576	0.595290
496	1.375000000	1.259480	1.066944	0.124733	0.945945	1.015879	-0.016627	1.237005	1.032435	-0.040560	1.087189	1.012338	-0.116509	0.943689	1.457907	-0.226523	1.133072	1.396232	-0.160222	1.015750	1.265757	-0.225583	0.651798	1.570901	-0.222709	0.618351	1.438824	-0.145813	0.718305	1.580875	-0.108071	0.969214	1.554408	-0.002959	1.065538	1.535136	-0.142986	1.070710	1.269696	0.165251	1.113437	1.406529	0.066333	0.946593	1.123145	0.363607	NaN	NaN	NaN	0.876799	1.322442	-0.257243	0.778563	1.099683	0.111343	0.783457	1.145343	-0.066029	0.805869	1.100265	0.394525	1.212433	0.507293	0.229234	0.990957	0.065374	0.244047	1.026358	0.039459	0.340184	1.178491	0.085542	0.271384	0.965971	0.527891	-0.153032	0.969704	0.031059	-0.284208	0.961756	0.057256	-0.398120	1.073694	0.161909	-0.345207	0.725398	0.923965	1.401973	0.736597	0.992590	1.462612	0.685855	0.982294	1.467198	0.844081	0.987156	0.729841	0.824596	1.006674	0.654086	0.864384	1.002256	0.611267
497	1.377777778	1.259679	1.067079	0.124796	0.944844	1.015489	-0.014327	1.236148	1.032442	-0.040295	1.085704	1.011903	-0.115090	0.940712	1.454839	-0.228795	1.130676	1.392765	-0.164911	1.011045	1.261685	-0.225069	0.650199	1.570050	-0.222901	0.616854	1.439278	-0.143993	0.718065	1.581168	-0.109188	0.971982	1.556317	-0.008523	1.065039	1.532885	-0.149943	1.073761	1.274248	0.164219	1.115185	1.409061	0.060910	0.950784	1.137303	0.369342	NaN	NaN	NaN	0.870973	1.319869	-0.254648	0.782882	1.111230	0.125084	0.781923	1.150495	-0.055454	0.814145	1.121512	0.406253	1.214255	0.507193	0.228724	0.991455	0.066018	0.245090	1.027161	0.039480	0.340960	1.179169	0.085321	0.271323	0.965689	0.528093	-0.152329	0.969766	0.031227	-0.284624	0.960689	0.057488	-0.398477	1.072578	0.162851	-0.346339	0.779684	0.993839	1.425333	0.794697	1.064469	1.482701	0.744205	1.055481	1.489956	0.865287	1.023529	0.745882	0.842103	1.039407	0.670365	0.879406	1.031734	0.625874
498	1.380555556	1.259836	1.067377	0.124939	0.944154	1.014961	-0.012299	1.235337	1.032398	-0.039923	1.084415	1.011453	-0.113619	0.937481	1.451700	-0.230959	1.128239	1.389389	-0.169491	1.005833	1.257727	-0.224210	0.648680	1.569273	-0.223149	0.615240	1.439963	-0.142106	0.717723	1.581538	-0.110245	0.974611	1.558192	-0.014063	1.064440	1.530432	-0.156835	1.076140	1.279492	0.163384	1.117058	1.411599	0.056367	0.955060	1.152101	0.375000	NaN	NaN	NaN	0.865189	1.317556	-0.251676	0.788235	1.122431	0.138362	0.781323	1.155353	-0.044871	0.823433	1.143295	0.417044	1.215975	0.506959	0.228324	0.992002	0.066706	0.246040	1.027830	0.039453	0.341717	1.179849	0.085051	0.271320	0.965272	0.528298	-0.151578	0.969770	0.031443	-0.285040	0.959716	0.057676	-0.398841	1.071430	0.163769	-0.347527	0.833757	1.063627	1.443425	0.852787	1.136688	1.496340	0.802518	1.128643	1.506702	0.885955	1.060175	0.759683	0.859396	1.072492	0.684696	0.894501	1.061785	0.638911
